<svg width="175" height="47" viewBox="0 0 175 47" xmlns="http://www.w3.org/2000/svg">
  <title>Logo: Hack Reactor</title>
  <g fill="none" fill-rule="evenodd">
    <path d="M19.83 5.94A18.07 18.07 0 005.4 23.54a18.1 18.1 0 0016.9 17.94V33.5a10.1 10.1 0 01-8.86-9.96c0-5.1 3.87-9.33 8.85-9.97v-2.46a12.57 12.57 0 00-11.32 12.43c0 5.58 3.72 10.32 8.85 11.92v3.17a15.61 15.61 0 01-11.94-15.1c0-8.13 6.35-14.82 14.41-15.49V.22C9.9.9 0 11.1 0 23.54c0 12.43 9.89 22.63 22.3 23.31V44.4c-11.05-.68-19.83-9.77-19.83-20.86A21 21 0 0119.83 2.98" fill="#36342E" fill-rule="nonzero"/>
    <path d="M24.92 0v2.47A21.19 21.19 0 0144.88 23.5a21.16 21.16 0 01-17.47 20.72v-2.98A18.21 18.21 0 0041.93 23.5c0-9.56-7.52-17.41-17-18.1v8.05c5.01.65 8.9 4.9 8.9 10.05 0 5.14-3.89 9.4-8.9 10.05v2.48c6.39-.66 11.4-6.03 11.4-12.53 0-5.63-3.76-10.4-8.92-12.02V8.3A15.73 15.73 0 0139.43 23.5c0 8.2-6.4 14.95-14.5 15.62V47c12.49-.68 22.44-10.96 22.44-23.5S37.42.69 24.92 0" fill="#2D82B8" fill-rule="nonzero"/>
    <path fill="#3D3935" fill-rule="nonzero" d="M68.35 19.38v-7.96h-9.47v7.96h-3.2V1.2h3.2V8.6h9.47V1.2h3.2v18.18h-3.2M82.62 4.39l-3.27 8.67h6.54l-3.27-8.67zm5.51 15l-1.34-3.52h-8.34l-1.33 3.51h-3.63L80.63 1.2h3.98l7.14 18.18h-3.62zM92.05 10.3c0-5.62 4.17-9.4 9.54-9.4a8.15 8.15 0 017.28 4.05l-2.7 1.42a5.37 5.37 0 00-4.58-2.64c-3.6 0-6.27 2.72-6.27 6.56 0 3.79 2.67 6.56 6.27 6.56 1.94 0 3.7-1.14 4.58-2.64l2.72 1.36a8.3 8.3 0 01-7.3 4.11c-5.37 0-9.54-3.8-9.54-9.39M122.3 19.38l-6.07-7.69-1.6 1.89v5.8h-3.2V1.2h3.2v8.64l7.1-8.64h3.95l-7.38 8.56 7.96 9.62h-3.95M66.35 33.36c0-1.74-1.3-2.86-3.1-2.86h-4.38v5.78h4.38c1.8 0 3.1-1.15 3.1-2.92zm-.3 12.52l-4-6.8h-3.18v6.8h-3.19V27.69h7.98c3.59 0 5.96 2.32 5.96 5.7a5.12 5.12 0 01-4.33 5.34l4.46 7.15h-3.7zM72.75 45.88V27.69h12.5v2.81h-9.3v4.69h9.1v2.8h-9.1v5.08h9.3v2.8h-12.5M96.02 30.88l-3.27 8.67h6.54l-3.27-8.67zm5.5 15l-1.33-3.52h-8.34l-1.33 3.52h-3.63l7.14-18.19h3.98l7.14 18.19h-3.62zM105.45 36.86c0-5.6 4.17-9.4 9.54-9.4a8.15 8.15 0 017.27 4.06l-2.7 1.42A5.37 5.37 0 00115 30.3c-3.6 0-6.27 2.72-6.27 6.56 0 3.78 2.67 6.56 6.27 6.56 1.93 0 3.7-1.14 4.57-2.64l2.73 1.36a8.3 8.3 0 01-7.3 4.11c-5.37 0-9.54-3.81-9.54-9.4M129.3 45.88V30.5h-5.51v-2.8H138v2.8h-5.52v15.38h-3.19M154.27 36.86c0-3.76-2.36-6.56-6.01-6.56-3.67 0-6.02 2.8-6.02 6.56 0 3.73 2.35 6.56 6.02 6.56 3.65 0 6.01-2.83 6.01-6.56zm-15.3 0c0-5.42 3.85-9.4 9.29-9.4 5.42 0 9.28 3.98 9.28 9.4s-3.86 9.4-9.28 9.4c-5.44 0-9.28-3.98-9.28-9.4zM171.28 33.36c0-1.74-1.31-2.86-3.1-2.86h-4.39v5.78h4.38c1.8 0 3.1-1.15 3.1-2.92zm-.3 12.52l-4-6.8h-3.19v6.8h-3.18V27.69h7.97c3.6 0 5.96 2.32 5.96 5.7a5.12 5.12 0 01-4.32 5.34l4.46 7.15h-3.7z"/>
  </g>
</svg>
